<svg id="visual" viewBox="0 0 960 300" width="960" height="300" xmlns="http://www.w3.org/2000/svg" xmlns:xlink="http://www.w3.org/1999/xlink" version="1.1"><path d="M0 58L87 58L87 52L175 52L175 46L262 46L262 73L349 73L349 58L436 58L436 52L524 52L524 79L611 79L611 58L698 58L698 67L785 67L785 61L873 61L873 82L960 82L960 85L960 0L960 0L873 0L873 0L785 0L785 0L698 0L698 0L611 0L611 0L524 0L524 0L436 0L436 0L349 0L349 0L262 0L262 0L175 0L175 0L87 0L87 0L0 0Z" fill="#dd3f31"></path><path d="M0 82L87 82L87 79L175 79L175 70L262 70L262 118L349 118L349 79L436 79L436 88L524 88L524 106L611 106L611 118L698 118L698 127L785 127L785 97L873 97L873 130L960 130L960 121L960 83L960 80L873 80L873 59L785 59L785 65L698 65L698 56L611 56L611 77L524 77L524 50L436 50L436 56L349 56L349 71L262 71L262 44L175 44L175 50L87 50L87 56L0 56Z" fill="#cc2e3a"></path><path d="M0 139L87 139L87 184L175 184L175 169L262 169L262 166L349 166L349 160L436 160L436 190L524 190L524 169L611 169L611 175L698 175L698 232L785 232L785 220L873 220L873 184L960 184L960 166L960 119L960 128L873 128L873 95L785 95L785 125L698 125L698 116L611 116L611 104L524 104L524 86L436 86L436 77L349 77L349 116L262 116L262 68L175 68L175 77L87 77L87 80L0 80Z" fill="#b81f40"></path><path d="M0 184L87 184L87 232L175 232L175 202L262 202L262 190L349 190L349 199L436 199L436 232L524 232L524 187L611 187L611 223L698 223L698 259L785 259L785 262L873 262L873 208L960 208L960 184L960 164L960 182L873 182L873 218L785 218L785 230L698 230L698 173L611 173L611 167L524 167L524 188L436 188L436 158L349 158L349 164L262 164L262 167L175 167L175 182L87 182L87 137L0 137Z" fill="#a31443"></path><path d="M0 301L87 301L87 301L175 301L175 301L262 301L262 301L349 301L349 301L436 301L436 301L524 301L524 301L611 301L611 301L698 301L698 301L785 301L785 301L873 301L873 301L960 301L960 301L960 182L960 206L873 206L873 260L785 260L785 257L698 257L698 221L611 221L611 185L524 185L524 230L436 230L436 197L349 197L349 188L262 188L262 200L175 200L175 230L87 230L87 182L0 182Z" fill="#8c0d44"></path></svg>