<svg id="visual" viewBox="0 0 960 540" width="960" height="540" xmlns="http://www.w3.org/2000/svg" xmlns:xlink="http://www.w3.org/1999/xlink" version="1.1"><rect x="0" y="0" width="960" height="540" fill="#8a3593"></rect><path d="M0 395L137 395L137 365L274 365L274 331L411 331L411 311L549 311L549 354L686 354L686 317L823 317L823 343L960 343L960 310L960 0L960 0L823 0L823 0L686 0L686 0L549 0L549 0L411 0L411 0L274 0L274 0L137 0L137 0L0 0Z" fill="#8a3593"></path><path d="M0 306L137 306L137 254L274 254L274 315L411 315L411 280L549 280L549 309L686 309L686 231L823 231L823 239L960 239L960 277L960 0L960 0L823 0L823 0L686 0L686 0L549 0L549 0L411 0L411 0L274 0L274 0L137 0L137 0L0 0Z" fill="#6e3996"></path><path d="M0 181L137 181L137 194L274 194L274 182L411 182L411 197L549 197L549 217L686 217L686 150L823 150L823 191L960 191L960 147L960 0L960 0L823 0L823 0L686 0L686 0L549 0L549 0L411 0L411 0L274 0L274 0L137 0L137 0L0 0Z" fill="#4f3c95"></path><path d="M0 133L137 133L137 115L274 115L274 94L411 94L411 125L549 125L549 87L686 87L686 64L823 64L823 68L960 68L960 109L960 0L960 0L823 0L823 0L686 0L686 0L549 0L549 0L411 0L411 0L274 0L274 0L137 0L137 0L0 0Z" fill="#283e91"></path></svg>