<svg id="visual" viewBox="0 0 900 600" width="900" height="600" xmlns="http://www.w3.org/2000/svg" xmlns:xlink="http://www.w3.org/1999/xlink" version="1.1"><path d="M0 356L21.5 333C43 310 86 264 128.8 243.7C171.7 223.3 214.3 228.7 257.2 250.8C300 273 343 312 385.8 326.7C428.7 341.3 471.3 331.7 514.2 316.7C557 301.7 600 281.3 642.8 285.3C685.7 289.3 728.3 317.7 771.2 328.7C814 339.7 857 333.3 878.5 330.2L900 327L900 601L878.5 601C857 601 814 601 771.2 601C728.3 601 685.7 601 642.8 601C600 601 557 601 514.2 601C471.3 601 428.7 601 385.8 601C343 601 300 601 257.2 601C214.3 601 171.7 601 128.8 601C86 601 43 601 21.5 601L0 601Z" fill="#112775"></path><path d="M0 330L21.5 328.5C43 327 86 324 128.8 316.8C171.7 309.7 214.3 298.3 257.2 290.3C300 282.3 343 277.7 385.8 295.5C428.7 313.3 471.3 353.7 514.2 366.2C557 378.7 600 363.3 642.8 348.2C685.7 333 728.3 318 771.2 325.5C814 333 857 363 878.5 378L900 393L900 601L878.5 601C857 601 814 601 771.2 601C728.3 601 685.7 601 642.8 601C600 601 557 601 514.2 601C471.3 601 428.7 601 385.8 601C343 601 300 601 257.2 601C214.3 601 171.7 601 128.8 601C86 601 43 601 21.5 601L0 601Z" fill="#63318b"></path><path d="M0 377L21.5 386.2C43 395.3 86 413.7 128.8 422C171.7 430.3 214.3 428.7 257.2 422.3C300 416 343 405 385.8 400.3C428.7 395.7 471.3 397.3 514.2 389C557 380.7 600 362.3 642.8 364.3C685.7 366.3 728.3 388.7 771.2 404.2C814 419.7 857 428.3 878.5 432.7L900 437L900 601L878.5 601C857 601 814 601 771.2 601C728.3 601 685.7 601 642.8 601C600 601 557 601 514.2 601C471.3 601 428.7 601 385.8 601C343 601 300 601 257.2 601C214.3 601 171.7 601 128.8 601C86 601 43 601 21.5 601L0 601Z" fill="#8a3593"></path><path d="M0 453L21.5 455.8C43 458.7 86 464.3 128.8 469.2C171.7 474 214.3 478 257.2 470C300 462 343 442 385.8 445.8C428.7 449.7 471.3 477.3 514.2 489.2C557 501 600 497 642.8 495.3C685.7 493.7 728.3 494.3 771.2 492.5C814 490.7 857 486.3 878.5 484.2L900 482L900 601L878.5 601C857 601 814 601 771.2 601C728.3 601 685.7 601 642.8 601C600 601 557 601 514.2 601C471.3 601 428.7 601 385.8 601C343 601 300 601 257.2 601C214.3 601 171.7 601 128.8 601C86 601 43 601 21.5 601L0 601Z" fill="#63318b"></path><path d="M0 534L21.5 526C43 518 86 502 128.8 493.2C171.7 484.3 214.3 482.7 257.2 484.8C300 487 343 493 385.8 502.2C428.7 511.3 471.3 523.7 514.2 530.8C557 538 600 540 642.8 538C685.7 536 728.3 530 771.2 520.8C814 511.7 857 499.3 878.5 493.2L900 487L900 601L878.5 601C857 601 814 601 771.2 601C728.3 601 685.7 601 642.8 601C600 601 557 601 514.2 601C471.3 601 428.7 601 385.8 601C343 601 300 601 257.2 601C214.3 601 171.7 601 128.8 601C86 601 43 601 21.5 601L0 601Z" fill="#112775"></path></svg>